<svg width="123" height="122" viewBox="0 0 123 122" fill="none" xmlns="http://www.w3.org/2000/svg">
<g clip-path="url(#clip0_4_9)">
<path d="M30.0299 3.29981C29.4158 8.40255 27.6077 14.6279 26.7207 14.6279C26.4819 14.6279 24.8443 13.9476 23.1044 13.1311C20.3069 11.8384 16.0425 10.5457 14.4731 10.5457C14.0637 10.5457 14.2684 11.1581 15.2578 13.1652C16.7589 16.1928 18.1235 20.9213 17.9529 22.5542L17.8506 23.6428L14.7802 23.881C5.84182 24.5613 1.64556 24.9696 1.64556 25.1397C1.64556 25.2757 3.14666 26.8746 4.98892 28.7456C8.43461 32.2155 10.9592 35.9235 10.7886 37.2162C10.7204 37.6925 8.98046 39.1211 5.3983 41.6046C2.49846 43.6118 0.0762333 45.4145 0.00800175 45.5848C-0.06023 45.7549 0.315044 45.993 0.860899 46.129C4.5113 46.9116 6.08063 47.4217 7.37704 48.1702C9.15104 49.2247 10.9933 50.7896 11.9144 52.0823L12.5968 53.0346L8.77576 56.8108C5.56887 60.0084 5.02302 60.6551 5.43243 61.0292C5.70534 61.2674 7.75229 62.0497 10.0039 62.7301C12.2556 63.4105 14.2343 64.1249 14.4049 64.295C14.5755 64.465 14.3025 66.1999 13.6543 68.5812C13.0744 70.7924 12.6991 72.7315 12.8014 72.9015C12.972 73.2078 18.6011 72.9356 19.5222 72.5955C20.3751 72.2892 20.7163 73.1056 20.9551 75.7931C21.0916 77.3581 21.2963 78.6848 21.4327 78.7526C21.7057 78.923 25.5267 77.2899 25.5267 77.0177C25.5267 76.9158 25.0831 76.2013 24.5373 75.419C22.968 73.1396 21.9104 70.7924 20.921 67.5267C20.4434 65.8258 19.727 63.5464 19.3858 62.4238C19.0105 61.3014 18.6352 59.7706 18.567 59.022C18.0894 55.4162 18.0212 54.0895 18.3623 54.0895C18.5329 54.0895 18.7035 54.6677 18.7035 55.3481C18.7376 56.8789 19.4881 60.9611 19.9999 62.4238C20.2046 62.9682 20.8528 64.9754 21.4327 66.8463C22.8315 71.2347 24.8443 75.1809 26.5842 76.9158C27.403 77.7322 29.177 78.8889 30.8828 79.6712L33.7485 80.9979L33.6464 82.2565L33.5439 83.5155L25.936 86.0327L18.3282 88.584L17.3388 91.8157C16.793 93.6188 15.2578 98.9598 13.8931 103.722C12.5285 108.451 11.2321 112.533 11.0274 112.737C10.8227 112.941 10.2086 114.778 9.69689 116.853C9.18517 118.895 8.70755 120.868 8.60518 121.174C8.43461 121.752 9.79926 121.786 34.0215 121.786C58.2779 121.786 59.6426 121.752 59.6426 121.174C59.6426 120.868 58.0391 119.099 56.0603 117.262C54.0816 115.425 52.478 113.724 52.478 113.452C52.478 113.213 53.7064 111.955 55.1733 110.662C58.9261 107.464 58.9603 107.26 57.4251 103.348C54.8323 96.7827 49.2713 86.645 47.2242 84.74C46.576 84.1278 46.3372 83.5492 46.3372 82.631C46.3372 81.2361 46.6443 80.8961 48.3842 80.3175C50.1583 79.7393 51.8982 78.4126 53.0924 76.7458C54.0474 75.419 54.4568 75.1809 57.0837 74.3645C58.6873 73.8541 59.9836 73.3097 59.9836 73.1737C59.9836 73.0037 59.3696 72.1192 58.6189 71.2347C57.152 69.4657 56.879 68.2071 57.8686 67.9008C58.1754 67.7989 59.3696 67.6286 60.4955 67.4926C61.621 67.3907 62.6447 67.2204 62.7811 67.1185C63.0883 66.9822 61.3484 62.1519 60.939 61.9815C60.8023 61.9137 60.666 61.6074 60.666 61.2674C60.666 60.8592 61.1437 60.5529 62.3717 60.2466C64.4868 59.7024 69.536 57.2871 69.536 56.8449C69.536 56.6408 68.8878 56.1645 68.1033 55.7563C63.7364 53.545 60.1883 50.9937 60.9048 50.5855C61.0412 50.5174 62.3034 50.1092 63.6681 49.701C65.0328 49.2929 67.2504 48.4424 68.6148 47.8298C70.969 46.7753 75.8136 43.9177 75.6086 43.7136C75.4722 43.6118 66.2267 39.6656 65.3397 39.3593C64.9303 39.1893 64.8282 38.9852 64.9987 38.6789C65.135 38.407 67.3868 36.2298 69.9795 33.8485C72.5384 31.4331 74.6535 29.3579 74.6535 29.2219C74.6535 28.9497 72.5381 28.5755 66.295 27.691C64.0433 27.3508 62.0646 27.0107 61.9282 26.8746C61.7577 26.7385 63.3271 23.7449 65.408 20.241C68.7856 14.4919 69.4338 13.2672 69.0925 13.2672C69.0245 13.2672 66.2267 14.2538 62.8836 15.4784C58.0049 17.2474 56.6744 17.5876 56.3333 17.2474C55.5827 16.499 54.8661 10.8859 54.8661 5.85116V0.986537L52.1029 2.44933C48.8619 4.18427 44.5293 7.55209 42.5163 9.89939C41.7657 10.8179 40.9811 11.5663 40.8448 11.5663C40.674 11.5663 39.3776 10.0014 37.9107 8.06238C35.3863 4.72857 31.1216 0 30.644 0C30.5075 0 30.2346 1.49681 30.0299 3.29981ZM30.9852 88.5499C29.7229 89.5366 23.275 106.512 23.7867 107.396C23.9573 107.702 25.4243 109.097 27.0619 110.526C28.7335 111.955 30.1323 113.282 30.2005 113.486C30.2687 113.69 29.8594 114.438 29.2794 115.152C28.7335 115.867 28.2559 116.241 28.2559 116.003C28.2559 115.799 28.5629 115.186 28.9724 114.71L29.6888 113.792L26.4137 110.73C24.1279 108.587 23.1385 107.43 23.1385 106.886C23.1385 105.797 27.0278 95.3878 29.4158 90.047C29.9958 88.754 30.4734 88.1077 30.8828 88.1077C31.4287 88.1418 31.4287 88.1758 30.9852 88.5499Z" fill="#F2F2F2"/>
<path d="M88.0957 47.7961C78.5091 49.531 73.2211 53.3069 66.364 63.4105C64.863 65.5877 64.7605 65.8599 64.7605 67.9689C64.7605 69.6017 64.4195 71.2006 63.5324 73.956C62.0314 78.6167 62.0994 79.7053 64.2486 83.3451C65.1015 84.7741 65.7838 86.1349 65.7838 86.305C65.7838 86.509 65.3403 87.1554 64.7605 87.7677C62.9522 89.7067 62.9864 92.7002 64.863 94.7074C65.9547 95.83 68.5133 96.8846 69.1956 96.4423C69.3661 96.3404 69.1273 95.5578 68.6838 94.6733C68.2061 93.8229 67.8309 92.8706 67.8651 92.5643C67.8651 92.2242 68.0356 92.3261 68.2403 92.8706C68.8201 94.1292 71.5154 98.2794 72.8459 99.9122C75.4729 103.178 81.1361 106.478 86.4241 107.873C88.0277 108.281 90.8593 108.655 93.2473 108.757C95.4988 108.859 97.034 109.063 96.6588 109.199C94.6117 109.914 85.1957 108.587 80.8631 106.954L78.6116 106.104L78.0315 106.886C75.8822 109.709 73.4258 116.139 72.8118 120.493L72.6413 121.786H93.793C113.785 121.786 114.945 121.752 114.774 121.174C114.672 120.868 114.126 118.826 113.58 116.649C112.386 111.955 111.431 109.608 109.896 107.6C109.282 106.784 108.77 105.934 108.77 105.695C108.804 105.491 109.657 104.675 110.715 103.926C112.625 102.566 115.252 99.8103 116.685 97.6331C117.162 96.9186 117.913 96.3404 118.595 96.1363C119.175 95.966 120.267 95.2518 121.017 94.5714C123.372 92.3261 123.61 89.2644 121.529 87.4614C120.813 86.8491 120.71 86.5431 120.915 85.4545C121.052 84.7741 121.256 84.1278 121.393 84.0256C121.529 83.9237 121.836 82.937 122.075 81.8143C122.416 80.1816 122.416 78.923 122.075 75.419C121.836 73.0378 121.495 71.0987 121.325 71.0987C121.154 71.0987 121.052 70.1461 121.086 68.9553C121.154 67.0844 120.984 66.5062 119.755 64.125C118.118 60.8929 115.695 57.3553 113.239 54.7018C111.738 53.0687 110.748 52.4224 106.894 50.5174C104.164 49.1907 101.367 48.068 100.002 47.7961C97.1707 47.1835 91.3708 47.1835 88.0957 47.7961Z" fill="#F2F2F2"/>
<path d="M48.0435 84.9101C48.0435 85.0123 48.6917 85.9646 49.5104 87.0191C50.3291 88.0739 51.455 89.7407 52.069 90.6593C53.6726 93.2106 57.3912 101.171 58.4829 104.335C59.6768 107.702 59.5746 107.94 55.9923 110.968C54.6276 112.125 53.5021 113.35 53.5021 113.622C53.5021 113.928 55.037 115.561 56.9135 117.33C58.9606 119.201 60.325 120.732 60.325 121.14C60.325 121.752 60.598 121.786 65.1012 121.786C68.6835 121.786 69.8777 121.684 69.8777 121.344C69.8777 119.915 61.5192 89.9448 60.7343 88.5162C60.598 88.244 58.4146 87.5295 55.8902 86.8831C53.3654 86.2709 50.7385 85.5223 50.022 85.2163C48.6234 84.6719 48.0435 84.57 48.0435 84.9101Z" fill="#F2F2F2"/>
</g>
<defs>
<clipPath id="clip0_4_9">
<rect width="123" height="122" fill="white"/>
</clipPath>
</defs>
</svg>
