<svg width="28" height="27" viewBox="0 0 28 27" fill="none" xmlns="http://www.w3.org/2000/svg">
<path d="M13.5028 0C10.2965 0.000132272 7.19491 1.13527 4.75295 3.2023C2.31098 5.26934 0.688002 8.13338 0.174402 11.282C-0.339198 14.4306 0.290099 17.6582 1.94969 20.3874C3.60929 23.1167 6.19088 25.1694 9.23255 26.1782C9.90769 26.2958 10.1609 25.8928 10.1609 25.5401C10.1609 25.2211 10.144 24.1632 10.144 23.0382C6.7514 23.6595 5.87372 22.2154 5.60367 21.4598C5.30401 20.7249 4.82898 20.0736 4.21964 19.5623C3.74704 19.3104 3.07191 18.6891 4.20275 18.6724C4.63455 18.719 5.04869 18.8685 5.41008 19.1081C5.77147 19.3478 6.06946 19.6706 6.2788 20.0492C6.46348 20.3793 6.71181 20.6699 7.00956 20.9043C7.30731 21.1387 7.64862 21.3123 8.01395 21.4153C8.37927 21.5182 8.76143 21.5485 9.13852 21.5042C9.5156 21.46 9.88021 21.3422 10.2114 21.1575C10.2699 20.4746 10.5758 19.8361 11.0723 19.3608C8.06791 19.025 4.92853 17.8663 4.92853 12.7281C4.90956 11.393 5.40475 10.1013 6.31256 9.11792C5.89976 7.95757 5.94806 6.68418 6.44759 5.55808C6.44759 5.55808 7.5784 5.20544 10.1608 6.935C12.3703 6.33046 14.7028 6.33046 16.9122 6.935C19.4946 5.18867 20.6254 5.55808 20.6254 5.55808C21.125 6.68416 21.1733 7.95758 20.7605 9.11792C21.671 10.0997 22.1666 11.3925 22.1445 12.7281C22.1445 17.8831 18.9882 19.025 15.9839 19.3608C16.3061 19.6858 16.5543 20.0759 16.7116 20.5047C16.8688 20.9335 16.9315 21.391 16.8953 21.846C16.8953 23.6427 16.8784 25.0868 16.8784 25.5402C16.8784 25.8928 17.1316 26.3126 17.8067 26.1783C20.8431 25.1612 23.4172 23.1037 25.0698 20.3731C26.7223 17.6424 27.3456 14.4164 26.8284 11.2709C26.3113 8.12535 24.6873 5.26502 22.2464 3.20051C19.8055 1.13599 16.7066 0.00165889 13.5028 0V0Z" fill="#9B9B9B"/>
</svg>
