<svg width="33" height="27" viewBox="0 0 33 27" fill="none" xmlns="http://www.w3.org/2000/svg">
<path d="M32.9386 3.13941C31.7226 3.66424 30.4366 4.01119 29.1206 4.16946C30.509 3.34432 31.5494 2.04623 32.0488 0.515992C30.7442 1.28863 29.316 1.83301 27.8264 2.12545C26.8308 1.05125 25.5049 0.33621 24.0567 0.092466C22.6086 -0.151278 21.12 0.0900631 19.8246 0.778638C18.5292 1.46721 17.5001 2.56407 16.8988 3.8972C16.2975 5.23032 16.1579 6.72429 16.502 8.14481C13.8642 8.01208 11.2838 7.32874 8.92871 6.13921C6.57358 4.94967 4.49633 3.28054 2.83189 1.24025C2.2481 2.25448 1.94134 3.40307 1.94212 4.57182C1.94005 5.65721 2.20778 6.72627 2.72149 7.68381C3.23519 8.64135 3.97892 9.45766 4.88646 10.0601C3.83164 10.0315 2.79935 9.74992 1.87741 9.23924V9.31972C1.88531 10.8405 2.42097 12.3118 3.39377 13.4849C4.36656 14.658 5.71679 15.4608 7.21605 15.7575C6.63892 15.9323 6.03973 16.0244 5.4365 16.0312C5.01894 16.0263 4.60241 15.9886 4.19082 15.9185C4.61776 17.2267 5.44398 18.3699 6.5545 19.1892C7.66502 20.0084 9.00461 20.4629 10.3869 20.4893C8.05276 22.3165 5.171 23.3137 2.20096 23.322C1.6602 23.3238 1.11986 23.2915 0.583191 23.2254C3.61558 25.1733 7.14942 26.2073 10.759 26.2029C13.2498 26.2286 15.7209 25.7603 18.0278 24.8253C20.3347 23.8904 22.4312 22.5074 24.1949 20.7573C25.9585 19.0072 27.354 16.925 28.2997 14.6324C29.2455 12.3397 29.7225 9.88259 29.703 7.40446C29.703 7.13086 29.703 6.84115 29.703 6.55145C30.9725 5.60962 32.0674 4.45502 32.9386 3.13941Z" fill="#9B9B9B"/>
</svg>
