<svg width="38" height="27" viewBox="0 0 38 27" fill="none" xmlns="http://www.w3.org/2000/svg">
<path d="M37.9914 9.23508C38.0756 6.8104 37.5426 4.40386 36.4419 2.23892C35.6951 1.35059 34.6586 0.751103 33.5132 0.544927C28.7753 0.117238 24.0179 -0.0580573 19.2613 0.0197913C14.5219 -0.0615907 9.78163 0.108048 5.06044 0.527988C4.12703 0.696907 3.26323 1.13247 2.57444 1.78154C1.04198 3.18755 0.871702 5.59301 0.701429 7.6258C0.454382 11.2807 0.454382 14.9479 0.701429 18.6028C0.750689 19.747 0.921923 20.8827 1.21225 21.9908C1.41756 22.8464 1.83294 23.638 2.42119 24.2946C3.11466 24.9781 3.99858 25.4384 4.95827 25.6159C8.62923 26.0667 12.3281 26.2536 16.0261 26.175C21.9856 26.2597 27.213 26.175 33.394 25.7006C34.3772 25.534 35.286 25.0731 35.9992 24.3793C36.4759 23.9049 36.8319 23.3241 37.0378 22.6853C37.6468 20.8264 37.9459 18.8808 37.9233 16.9258C37.9914 15.9772 37.9914 10.2515 37.9914 9.23508ZM15.4131 17.9422V7.4564L25.4933 12.7247C22.6667 14.2832 18.9377 16.0449 15.4131 17.9422Z" fill="#9B9B9B"/>
</svg>
